<svg xmlns="http://www.w3.org/2000/svg" xmlns:xlink="http://www.w3.org/1999/xlink" viewBox="0,0,256,256" width="512px" height="512px" fill-rule="nonzero"><g fill="#ffffff" fill-rule="nonzero" stroke="none" stroke-width="1" stroke-linecap="butt" stroke-linejoin="miter" stroke-miterlimit="10" stroke-dasharray="" stroke-dashoffset="0" font-family="none" font-weight="none" font-size="none" text-anchor="none" style="mix-blend-mode: normal"><g transform="scale(4,4)"><path d="M16.83594,4.72656c-0.20525,-0.00515 -0.41536,0.02224 -0.62305,0.08594h-0.00195l-0.12891,0.03906c-0.00065,0 -0.0013,0 -0.00195,0c-6.58165,2.02489 -11.08008,8.11609 -11.08008,15.00195v0.71094c0,5.45349 3.4552,11.74945 8,14.88086v12.55469c0,7.72039 6.27961,14 14,14h10c7.72039,0 14,-6.27961 14,-14v-12.55469c4.5448,-3.13141 8,-9.42629 8,-14.87891v-0.71094c0,-6.8868 -4.49838,-12.97901 -11.08008,-15.00391c-0.00065,0 -0.0013,0 -0.00195,0l-0.12891,-0.03906h-0.00195c-0.83066,-0.25506 -1.69463,0.08351 -2.16016,0.67773c-0.4659,0.5947 -0.58958,1.51576 -0.14258,2.26172c0.00065,0 0.0013,0 0.00195,0l1.16602,1.94531l-1.05859,0.70508c-1.09996,0.7333 -1.17486,2.38822 -0.14648,3.21875c0.26592,0.21486 0.52789,0.44546 0.56055,0.47851c1.80708,1.84015 2.43043,4.36175 2.08008,6.99219c-0.32942,2.47331 -1.60828,4.95204 -3.47461,6.87109c-0.96655,-0.30692 -6.32472,-1.96289 -12.61133,-1.96289c-6.42932,0 -11.66105,1.57504 -12.61523,1.87109c-1.86827,-1.91878 -3.1461,-4.38249 -3.47461,-6.83398c-0.3493,-2.60664 0.27046,-5.10071 2.07813,-6.9375c0.03179,-0.03233 0.29604,-0.26322 0.5625,-0.47851c1.02837,-0.83053 0.95347,-2.4874 -0.14648,-3.2207l-1.05859,-0.70313l1.16602,-1.94531c0.44779,-0.74569 0.32744,-1.66675 -0.13867,-2.26172c-0.3493,-0.44587 -0.9233,-0.74822 -1.53906,-0.76367zM16.79688,6.72461l-1.6543,2.76172c-0.27404,0.45753 -0.14085,1.04961 0.30273,1.3457l1.84961,1.23242c-0.28554,0.23071 -0.52626,0.42514 -0.73047,0.63281c-2.28834,2.32521 -3.04946,5.51086 -2.63476,8.60547c0.4147,3.09461 1.97206,6.14504 4.38477,8.42383c0.26592,0.2515 0.64798,0.33765 0.99609,0.22461c0,0 6.04222,-1.95117 12.69141,-1.95117c6.45545,0 12.68164,2.04492 12.68164,2.04492c0.34893,0.11511 0.73287,0.02962 1,-0.22266c2.41552,-2.28093 3.97182,-5.35173 4.38672,-8.4668c0.4149,-3.11506 -0.34384,-6.3234 -2.63477,-8.65625c0,-0.00065 0,-0.0013 0,-0.00195c-0.20421,-0.20767 -0.44493,-0.40015 -0.73047,-0.63086l1.84961,-1.23437c0.44358,-0.29609 0.57678,-0.88817 0.30273,-1.3457l-1.6543,-2.76172l0.12891,0.03906h0.00195c5.74932,1.76968 9.66602,7.0752 9.66602,13.0918v0.71094c0,4.72648 -3.52151,11.08107 -7.5293,13.58594c-0.29253,0.18252 -0.47041,0.50285 -0.4707,0.84766v13c0,6.63961 -5.36039,12 -12,12h-10c-6.63961,0 -12,-5.36039 -12,-12v-13c-0.00029,-0.3448 -0.17817,-0.66514 -0.4707,-0.84766c-4.00779,-2.50487 -7.5293,-8.86032 -7.5293,-13.58789v-0.71094c0,-6.01553 3.91665,-11.32021 9.66602,-13.08984zM31.94727,18.99023c-0.55155,0.01285 -0.98851,0.46992 -0.97656,1.02148l0.01758,2c-0.00143,0.36011 0.19085,0.69318 0.50341,0.87202c0.31256,0.17884 0.69714,0.17584 1.00687,-0.00787c0.30973,-0.1837 0.49678,-0.51974 0.48972,-0.87978l-0.01758,-2c0.00163,-0.27033 -0.10625,-0.52981 -0.29906,-0.71931c-0.19281,-0.1895 -0.45412,-0.29286 -0.72438,-0.28655zM37.07422,19.13672c-0.51188,0.02534 -0.92177,0.43354 -0.94922,0.94531l-0.13281,1.99609c-0.0392,0.36487 0.12458,0.72191 0.4267,0.93021c0.30212,0.2083 0.69406,0.2344 1.02114,0.06801c0.32708,-0.16639 0.53676,-0.49856 0.54629,-0.8654l0.13281,-1.99609c0.02275,-0.28646 -0.07882,-0.56886 -0.27881,-0.77521c-0.19999,-0.20635 -0.47908,-0.3167 -0.76611,-0.30292zM26.81836,19.22852c-0.28238,0.00028 -0.55149,0.11993 -0.74086,0.3294c-0.18938,0.20947 -0.28137,0.48923 -0.25328,0.77021l0.17188,1.99219c0.03064,0.35627 0.24904,0.66912 0.57292,0.82068c0.32388,0.15156 0.70401,0.1188 0.99718,-0.08595c0.29317,-0.20474 0.45482,-0.55035 0.42404,-0.90661l-0.17383,-1.99219c-0.03795,-0.52311 -0.47357,-0.92803 -0.99805,-0.92773zM42.20117,19.69922c-0.47496,0.02782 -0.86458,0.38639 -0.93164,0.85742l-0.30859,1.97656c-0.06995,0.35922 0.06189,0.72797 0.34375,0.9614c0.28186,0.23343 0.66871,0.29427 1.00861,0.15862c0.3399,-0.13565 0.57857,-0.44612 0.62225,-0.80948l0.31055,-1.97656c0.05178,-0.30087 -0.0367,-0.60892 -0.24026,-0.83645c-0.20356,-0.22753 -0.4999,-0.34962 -0.80466,-0.33151zM21.69531,19.9043c-0.29966,-0.00094 -0.58394,0.13254 -0.77462,0.36371c-0.19068,0.23116 -0.26766,0.53564 -0.20975,0.82965l0.35742,1.96875c0.06411,0.35176 0.31105,0.64259 0.64777,0.76288c0.33671,0.1203 0.71203,0.05179 0.98453,-0.17972c0.2725,-0.2315 0.40076,-0.59081 0.33646,-0.94254l-0.35937,-1.96875c-0.08085,-0.48005 -0.49562,-0.83214 -0.98242,-0.83398zM23,41c-2.76142,0 -5,2.68629 -5,6c0,3.31371 2.23858,6 5,6c2.76142,0 5,-2.68629 5,-6c0,-3.31371 -2.23858,-6 -5,-6zM41,41c-2.76142,0 -5,2.68629 -5,6c0,3.31371 2.23858,6 5,6c2.76142,0 5,-2.68629 5,-6c0,-3.31371 -2.23858,-6 -5,-6z"></path></g></g></svg>